<svg xmlns="http://www.w3.org/2000/svg" version="1.0" width="168.000000pt" height="165.000000pt" viewBox="0 0 168.000000 165.000000" preserveAspectRatio="xMidYMid meet">

<g transform="translate(0.000000,165.000000) scale(0.100000,-0.100000)" fill="#C3073F" stroke="none">
<path d="M718 1620 c-255 -43 -481 -209 -593 -435 -62 -123 -86 -224 -88 -355 -1 -154 25 -260 99 -400 74 -142 206 -267 358 -340 107 -51 180 -70 303 -77 235 -14 440 59 606 216 172 163 257 356 257 589 0 324 -179 601 -476 738 -134 62 -322 88 -466 64z m429 -466 c25 -25 26 -29 20 -107 -3 -45 -13 -116 -21 -157 -24 -125 -26 -141 -16 -135 12 7 30 -27 30 -59 0 -14 -9 -35 -20 -46 -23 -23 -26 -72 -7 -110 18 -37 44 -37 65 -1 19 35 32 40 32 12 0 -43 -72 -101 -125 -101 -41 0 -81 47 -95 113 -13 56 -13 56 -59 66 -25 5 -53 12 -62 16 -10 4 -20 -5 -32 -30 -37 -78 -140 -164 -214 -180 -47 -9 -99 4 -128 32 -85 86 60 312 193 301 31 -3 38 -7 45 -35 16 -53 6 -63 -63 -63 -68 0 -108 -16 -139 -56 -42 -54 -18 -144 38 -144 66 0 129 87 207 287 60 154 129 271 188 320 29 24 37 36 34 58 -2 23 2 30 22 36 50 14 80 9 107 -17z"/>
<path d="M987 973 c-27 -61 -89 -254 -84 -260 2 -2 24 0 49 3 l46 6 5 52 c11 91 20 256 15 256 -3 0 -17 -26 -31 -57z"/>
</g>
</svg>